<?xml version="1.0" encoding="utf-8"?>
<!-- Generator: Adobe Illustrator 24.1.0, SVG Export Plug-In . SVG Version: 6.00 Build 0)  -->
<svg version="1.1" id="Layer_1" xmlns="http://www.w3.org/2000/svg" xmlns:xlink="http://www.w3.org/1999/xlink" x="0px" y="0px"
	 viewBox="0 0 667.7 227.1" style="enable-background:new 0 0 667.7 227.1;" xml:space="preserve">
<style type="text/css">
	.st0{fill:#FFFFFF;}
	.st1{fill:#D1EAF1;}
	.st2{fill:#D3E2E5;}
	.st3{fill:#303A52;}
</style>
<g>
	<path class="st3" d="M228.8,70.3c0-3.3-0.1-6.2-0.2-8.9c-0.2-2.7-0.4-5.9-0.7-9.8H34.2C35.1,34.5,38.7,19,45.1,5.3
		c0.8-1.8,1.7-3.6,2.7-5.3L12.1,0C4,16.9,0,36.7,0,59.2c0,23.7,4.8,44.7,14.5,63.1c9.6,18.3,23.2,32.7,40.6,43.1
		c17.5,10.3,37.9,15.6,61.3,15.6c34.4,0,61.7-9.9,82-29.5C218.6,131.7,228.8,104.7,228.8,70.3z M195.5,71.7c0,17.8-3,33.2-8.9,46.4
		c-5.9,13.2-14.7,23.5-26.2,30.9c-11.6,7.4-26.2,11.1-44,11.1c-16.9,0-31.2-3.9-42.9-11.8c-11.7-7.8-20.8-18.4-27.3-31.8
		S35.8,88.2,34.7,71.7H195.5z"/>
	<path class="st3" d="M502,95.2v-4h-33.8c0,13.9-3.3,26.1-9.8,36.4c-6.5,10.4-15.3,18.4-26.4,24c-11.1,5.6-23.6,8.4-37.5,8.4
		c-13.9,0-26.1-2.7-36.4-8c-10.4-5.3-19-12.6-26-21.8c-7-9.2-12.2-19.9-15.8-32c-3.6-12.1-5.3-25.2-5.3-39.1c0-18.4,3.2-35,9.5-49.8
		c1.4-3.3,3-6.5,4.7-9.5l-35.6,0c-8.3,17.1-12.4,36.8-12.4,59.2c0,23.4,4.9,44.3,14.7,62.8c9.8,18.5,23.5,33,41.1,43.3
		c17.6,10.3,38.1,15.6,61.5,15.6c18.9,0,36.7-3.5,53.1-10.5c16.4-6.9,29.6-16.8,39.5-29.5C497,128.2,502,113,502,95.2z"/>
	<path class="st3" d="M610.8,156.1V16.1c0-5.8,0.1-11.2,0.4-16.1l-33.3,0c0,0.9,0,1.9,0,2.8v153.3h-31.1v20.4h31.1v42.6l32.9,8
		v-50.6h56.9v-20.4H610.8z"/>
</g>
</svg>
