<?xml version="1.0" encoding="utf-8"?>
<!-- Generator: Adobe Illustrator 24.1.0, SVG Export Plug-In . SVG Version: 6.00 Build 0)  -->
<svg version="1.1" id="Layer_1" xmlns="http://www.w3.org/2000/svg" xmlns:xlink="http://www.w3.org/1999/xlink" x="0px" y="0px"
	 viewBox="0 0 1000 180" style="enable-background:new 0 0 1000 180;" xml:space="preserve">
<style type="text/css">
	.st0{fill:#FFFFFF;}
	.st1{fill:#D1EAF1;}
	.st2{fill:#303A52;}
</style>
<g>
	<path class="st0" d="M858.5,112c2.2,0.3,4.7,0.4,7.4,0.4c9.4,0,18.3-2.3,26.9-7c8.6-4.7,14.7-13,18.3-24.9l3.9,29.2h16.3V0.2h-20.4
		V43c0,10.5-1.6,19.2-4.7,26c-3.1,6.9-7.1,12.4-11.9,16.4c-4.4,3.9-9.3,6.5-14.6,8c-5.3,1.5-10.3,2.2-14.9,2.2
		c-4.2,0-8.4-0.6-12.4-1.7v16.8C854.2,111.3,856.3,111.8,858.5,112z"/>
	<path class="st0" d="M708.2,94.1c12.6,12.2,29.5,18.3,50.8,18.3c14.5,0,27.2-3.2,38-9.6c10.8-6.4,19.3-15.4,25.2-26.7
		c6-11.4,9-24.4,9-39.1c0-14-2.5-26.2-7.5-36.7h-22.1c0.6,1.1,1.1,2.1,1.7,3.3c4,8.5,6.2,18.1,6.8,28.8H689.8
		c-0.2,2.4-0.3,4.4-0.4,6.1c-0.1,1.7-0.1,3.5-0.1,5.5C689.3,65.1,695.6,81.9,708.2,94.1z M809.7,44.7c-0.7,10.3-3.1,19.6-7.2,27.8
		c-4,8.3-9.7,14.8-16.9,19.7c-7.3,4.9-16.1,7.3-26.6,7.3c-11,0-20.1-2.3-27.3-6.9c-7.2-4.6-12.6-11-16.2-19.2
		c-3.7-8.2-5.5-17.8-5.5-28.8H809.7z"/>
	<path class="st0" d="M577.2,178.6c4.1,0.7,8.6,1.1,13.4,1.1c16.3,0,29.3-3.7,38.8-11.2c9.6-7.4,14.3-19.4,14.3-36v-22.9h19.8V97
		h-19.3V0.2h-20.7V97h-46.9v12.7h46.9v22.9c0,12.1-3.2,20.7-9.5,25.6c-6.3,5-15.5,7.4-27.4,7.4c-4,0-7.5-0.1-10.3-0.3
		c-2.8-0.2-5.8-0.6-9-1.1v12.4C569.9,177.2,573.1,177.9,577.2,178.6z M546.5,176.9V0.2h-20.4v176.7H546.5z"/>
	<path class="st0" d="M360.9,94.1c12.6,12.2,29.5,18.3,50.9,18.3c14.5,0,27.2-3.2,38-9.6c10.8-6.4,19.3-15.4,25.2-26.7
		c6-11.4,9-24.4,9-39.1c0-14-2.5-26.2-7.5-36.7h-22.1c0.6,1.1,1.1,2.1,1.7,3.3c4,8.5,6.2,18.1,6.8,28.8H342.6
		c-0.2,2.4-0.3,4.4-0.4,6.1c-0.1,1.7-0.1,3.5-0.1,5.5C342,65.1,348.3,81.9,360.9,94.1z M462.5,44.7c-0.7,10.3-3.1,19.6-7.2,27.8
		s-9.7,14.8-16.9,19.7c-7.3,4.9-16.1,7.3-26.6,7.3c-11,0-20.1-2.3-27.3-6.9c-7.2-4.6-12.6-11-16.2-19.2c-3.7-8.2-5.5-17.8-5.5-28.8
		H462.5z"/>
	<path class="st0" d="M181.8,87.6c6.2,7.9,14.3,14,24.5,18.3c10.2,4.3,21.2,6.5,32.9,6.5c14.5,0,27.2-3.2,38.2-9.6
		c10.9-6.4,19.4-15.4,25.5-26.9c6.1-11.5,9.1-24.5,9.1-39c0-13.9-2.5-26.1-7.7-36.7h-22.1c1.1,1.9,2,3.8,2.9,5.9
		c3.9,9.2,5.9,19.5,5.9,30.9c0,8.6-1.1,16.7-3.3,24.2c-2.2,7.5-5.5,14.1-9.8,19.8c-4.3,5.7-9.7,10.2-16.1,13.5c-6.4,3.3-14,5-22.6,5
		c-8.6,0-16.4-1.8-23.3-5.2c-6.9-3.5-12.4-8.5-16.4-14.9c-4-6.4-6.1-14-6.1-22.6h-20.9v2.5C172.6,70.3,175.7,79.7,181.8,87.6z"/>
	<path class="st0" d="M69.8,97v12.7H105v31.4l20.4-5v-26.5h19.3V97h-19.3V1.9c0-0.6,0-1.2,0-1.7h-20.6c0.2,3.1,0.2,6.4,0.2,10V97
		H69.8z"/>
</g>
</svg>
