<?xml version="1.0" encoding="utf-8"?>
<!-- Generator: Adobe Illustrator 24.1.0, SVG Export Plug-In . SVG Version: 6.00 Build 0)  -->
<svg version="1.1" id="Layer_1" xmlns="http://www.w3.org/2000/svg" xmlns:xlink="http://www.w3.org/1999/xlink" x="0px" y="0px"
	 viewBox="0 0 653 289.3" style="enable-background:new 0 0 653 289.3;" xml:space="preserve">
<style type="text/css">
	.st0{fill:#FFFFFF;}
	.st1{fill:#D1EAF1;}
	.st2{fill:#D3E2E5;}
	.st3{fill:#303A52;}
</style>
<g>
	<path class="st3" d="M117.3,109.1c-3.6-0.5-7.5-0.7-12-0.7c-15.1,0-29.5,3.8-43.3,11.3c-13.8,7.6-23.6,21-29.5,40.2l-6.2-47.1H0
		v176.5h32.9v-69c0-16.9,2.5-30.9,7.5-42c5-11.1,11.4-19.9,19.1-26.4c7.1-6.2,15-10.5,23.6-12.9c8.6-2.4,16.6-3.6,24-3.6
		c6.8,0,13.5,0.9,20,2.7v-27.1C124.1,110.2,120.8,109.5,117.3,109.1z"/>
	<path class="st3" d="M359.6,137.9c-20.3-19.7-47.6-29.5-82-29.5c-23.4,0-43.8,5.2-61.3,15.6c-17.5,10.4-31,24.7-40.6,43.1
		c-9.6,18.4-14.5,39.4-14.5,63.1c0,22.6,4,42.3,12.1,59.2H209c-0.9-1.7-1.8-3.4-2.7-5.3c-6.4-13.8-10-29.2-10.9-46.4h193.7
		c0.3-3.8,0.5-7.1,0.7-9.8c0.2-2.7,0.2-5.6,0.2-8.9C390,184.6,379.9,157.6,359.6,137.9z M195.9,217.7c1.2-16.6,5-31.5,11.5-44.9
		c6.5-13.3,15.6-23.9,27.3-31.8c11.7-7.8,26-11.8,42.9-11.8c17.8,0,32.4,3.7,44,11.1c11.5,7.4,20.3,17.7,26.2,30.9
		c5.9,13.2,8.9,28.6,8.9,46.4H195.9z"/>
	<path class="st3" d="M570.6,1.8C563.9,0.6,556.7,0,549,0c-26.4,0-47.2,6-62.6,18c-15.4,12-23.1,31.3-23.1,58v36.9h-32v20.4h31.1
		v156.1h33.3V133.3h75.5v-20.4h-75.5V76c0-19.5,5.1-33.3,15.3-41.3c10.2-8,25-12,44.2-12c6.5,0,12,0.1,16.7,0.4
		c4.6,0.3,9.4,0.9,14.4,1.8v-20C582.5,4,577.3,3,570.6,1.8z M620.1,4.4v284.9H653V4.4H620.1z"/>
</g>
</svg>
