<?xml version="1.0" encoding="utf-8"?>
<!-- Generator: Adobe Illustrator 24.1.0, SVG Export Plug-In . SVG Version: 6.00 Build 0)  -->
<svg version="1.1" id="Layer_1" xmlns="http://www.w3.org/2000/svg" xmlns:xlink="http://www.w3.org/1999/xlink" x="0px" y="0px"
	 viewBox="0 0 1000 380" style="enable-background:new 0 0 1000 380;" xml:space="preserve">
<style type="text/css">
	.st0{fill:#FFFFFF;}
	.st1{fill:#D1EAF1;}
	.st2{fill:#303A52;}
</style>
<g>
	<path class="st1" d="M142.5,68c-2.2-0.3-4.7-0.4-7.4-0.4c-9.4,0-18.3,2.3-26.9,7c-8.6,4.7-14.7,13-18.3,24.9L86,70.3H69.8v109.5
		h20.4V137c0-10.5,1.6-19.2,4.7-26c3.1-6.9,7.1-12.4,11.9-16.4c4.4-3.9,9.3-6.5,14.6-8c5.3-1.5,10.3-2.2,14.9-2.2
		c4.2,0,8.4,0.6,12.4,1.7V69.2C146.8,68.7,144.7,68.2,142.5,68z"/>
	<path class="st1" d="M292.8,85.9c-12.6-12.2-29.5-18.3-50.8-18.3c-14.5,0-27.2,3.2-38,9.6c-10.8,6.4-19.3,15.4-25.2,26.7
		c-6,11.4-9,24.4-9,39.1c0,14,2.5,26.2,7.5,36.7h22.1c-0.6-1.1-1.1-2.1-1.7-3.3c-4-8.5-6.2-18.1-6.8-28.8h120.2
		c0.2-2.4,0.3-4.4,0.4-6.1c0.1-1.7,0.1-3.5,0.1-5.5C311.7,114.9,305.4,98.1,292.8,85.9z M191.3,135.3c0.7-10.3,3.1-19.6,7.2-27.8
		c4-8.3,9.7-14.8,16.9-19.7c7.3-4.9,16.1-7.3,26.6-7.3c11,0,20.1,2.3,27.3,6.9c7.2,4.6,12.6,11,16.2,19.2c3.7,8.2,5.5,17.8,5.5,28.8
		H191.3z"/>
	<path class="st1" d="M423.8,1.4c-4.1-0.7-8.6-1.1-13.4-1.1c-16.3,0-29.3,3.7-38.8,11.2c-9.6,7.4-14.3,19.4-14.3,36v22.9h-19.8V83
		h19.3v96.8h20.7V83h46.9V70.3h-46.9V47.4c0-12.1,3.2-20.7,9.5-25.6c6.3-5,15.5-7.4,27.4-7.4c4,0,7.5,0.1,10.3,0.3
		c2.8,0.2,5.8,0.6,9,1.1V3.3C431.1,2.8,427.9,2.1,423.8,1.4z M454.5,3.1v176.7h20.4V3.1H454.5z"/>
	<path class="st1" d="M640.1,85.9c-12.6-12.2-29.5-18.3-50.9-18.3c-14.5,0-27.2,3.2-38,9.6c-10.8,6.4-19.3,15.4-25.2,26.7
		c-6,11.4-9,24.4-9,39.1c0,14,2.5,26.2,7.5,36.7h22.1c-0.6-1.1-1.1-2.1-1.7-3.3c-4-8.5-6.2-18.1-6.8-28.8h120.2
		c0.2-2.4,0.3-4.4,0.4-6.1c0.1-1.7,0.1-3.5,0.1-5.5C659,114.9,652.7,98.1,640.1,85.9z M538.5,135.3c0.7-10.3,3.1-19.6,7.2-27.8
		s9.7-14.8,16.9-19.7c7.3-4.9,16.1-7.3,26.6-7.3c11,0,20.1,2.3,27.3,6.9c7.2,4.6,12.6,11,16.2,19.2c3.7,8.2,5.5,17.8,5.5,28.8H538.5
		z"/>
	<path class="st1" d="M819.2,92.4c-6.2-7.9-14.3-14-24.5-18.3c-10.2-4.3-21.2-6.5-32.9-6.5c-14.5,0-27.2,3.2-38.2,9.6
		c-10.9,6.4-19.4,15.4-25.5,26.9c-6.1,11.5-9.1,24.5-9.1,39c0,13.9,2.5,26.1,7.7,36.7h22.1c-1.1-1.9-2-3.8-2.9-5.9
		c-3.9-9.2-5.9-19.5-5.9-30.9c0-8.6,1.1-16.7,3.3-24.2c2.2-7.5,5.5-14.1,9.8-19.8c4.3-5.7,9.7-10.2,16.1-13.5c6.4-3.3,14-5,22.6-5
		c8.6,0,16.4,1.8,23.3,5.2c6.9,3.5,12.4,8.5,16.4,14.9c4,6.4,6.1,14,6.1,22.6h20.9v-2.5C828.4,109.7,825.3,100.3,819.2,92.4z"/>
	<path class="st1" d="M931.2,83V70.3H896V38.9l-20.4,5v26.5h-19.3V83h19.3v95.1c0,0.6,0,1.2,0,1.7h20.6c-0.2-3.1-0.2-6.4-0.2-10V83
		H931.2z"/>
</g>
<g>
	<path class="st0" d="M858.5,312c2.2,0.3,4.7,0.4,7.4,0.4c9.4,0,18.3-2.3,26.9-7c8.6-4.7,14.7-13,18.3-24.9l3.9,29.2h16.3V200.2
		h-20.4V243c0,10.5-1.6,19.2-4.7,26c-3.1,6.9-7.1,12.4-11.9,16.4c-4.4,3.9-9.3,6.5-14.6,8c-5.3,1.5-10.3,2.2-14.9,2.2
		c-4.2,0-8.4-0.6-12.4-1.7v16.8C854.2,311.3,856.3,311.8,858.5,312z"/>
	<path class="st0" d="M708.2,294.1c12.6,12.2,29.5,18.3,50.8,18.3c14.5,0,27.2-3.2,38-9.6c10.8-6.4,19.3-15.4,25.2-26.7
		c6-11.4,9-24.4,9-39.1c0-14-2.5-26.2-7.5-36.7h-22.1c0.6,1.1,1.1,2.1,1.7,3.3c4,8.5,6.2,18.1,6.8,28.8H689.8
		c-0.2,2.4-0.3,4.4-0.4,6.1c-0.1,1.7-0.1,3.5-0.1,5.5C689.3,265.1,695.6,281.9,708.2,294.1z M809.7,244.7
		c-0.7,10.3-3.1,19.6-7.2,27.8c-4,8.3-9.7,14.8-16.9,19.7c-7.3,4.9-16.1,7.3-26.6,7.3c-11,0-20.1-2.3-27.3-6.9
		c-7.2-4.6-12.6-11-16.2-19.2c-3.7-8.2-5.5-17.8-5.5-28.8H809.7z"/>
	<path class="st0" d="M577.2,378.6c4.1,0.7,8.6,1.1,13.4,1.1c16.3,0,29.3-3.7,38.8-11.2c9.6-7.4,14.3-19.4,14.3-36v-22.9h19.8V297
		h-19.3v-96.8h-20.7V297h-46.9v12.7h46.9v22.9c0,12.1-3.2,20.7-9.5,25.6c-6.3,5-15.5,7.4-27.4,7.4c-4,0-7.5-0.1-10.3-0.3
		c-2.8-0.2-5.8-0.6-9-1.1v12.4C569.9,377.2,573.1,377.9,577.2,378.6z M546.5,376.9V200.2h-20.4v176.7H546.5z"/>
	<path class="st0" d="M360.9,294.1c12.6,12.2,29.5,18.3,50.9,18.3c14.5,0,27.2-3.2,38-9.6c10.8-6.4,19.3-15.4,25.2-26.7
		c6-11.4,9-24.4,9-39.1c0-14-2.5-26.2-7.5-36.7h-22.1c0.6,1.1,1.1,2.1,1.7,3.3c4,8.5,6.2,18.1,6.8,28.8H342.6
		c-0.2,2.4-0.3,4.4-0.4,6.1c-0.1,1.7-0.1,3.5-0.1,5.5C342,265.1,348.3,281.9,360.9,294.1z M462.5,244.7c-0.7,10.3-3.1,19.6-7.2,27.8
		s-9.7,14.8-16.9,19.7c-7.3,4.9-16.1,7.3-26.6,7.3c-11,0-20.1-2.3-27.3-6.9c-7.2-4.6-12.6-11-16.2-19.2c-3.7-8.2-5.5-17.8-5.5-28.8
		H462.5z"/>
	<path class="st0" d="M181.8,287.6c6.2,7.9,14.3,14,24.5,18.3c10.2,4.3,21.2,6.5,32.9,6.5c14.5,0,27.2-3.2,38.2-9.6
		c10.9-6.4,19.4-15.4,25.5-26.9c6.1-11.5,9.1-24.5,9.1-39c0-13.9-2.5-26.1-7.7-36.7h-22.1c1.1,1.9,2,3.8,2.9,5.9
		c3.9,9.2,5.9,19.5,5.9,30.9c0,8.6-1.1,16.7-3.3,24.2c-2.2,7.5-5.5,14.1-9.8,19.8c-4.3,5.7-9.7,10.2-16.1,13.5c-6.4,3.3-14,5-22.6,5
		c-8.6,0-16.4-1.8-23.3-5.2c-6.9-3.5-12.4-8.5-16.4-14.9c-4-6.4-6.1-14-6.1-22.6h-20.9v2.5C172.6,270.3,175.7,279.7,181.8,287.6z"/>
	<path class="st0" d="M69.8,297v12.7H105v31.4l20.4-5v-26.5h19.3V297h-19.3v-95.1c0-0.6,0-1.2,0-1.7h-20.6c0.2,3.1,0.2,6.4,0.2,10
		V297H69.8z"/>
</g>
<rect x="490.3" y="-309.5" transform="matrix(6.123234e-17 -1 1 6.123234e-17 310.4976 690.5024)" class="st1" width="20.4" height="999"/>
</svg>
